<svg xmlns="http://www.w3.org/2000/svg"><symbol id="icon-search" viewBox="0 0 18 18">
    <path fill="currentColor" d="M12.8 11.4c.9-1.2 1.4-2.7 1.4-4.3C14.2 3.2 11 0 7.1 0S0 3.2 0 7.1c0 3.9 3.2 7.1 7.1 7.1 1.6 0 3.1-.5 4.3-1.4l5.2 5.2 1.4-1.4-5.2-5.2zM2 7.1C2 4.3 4.3 2 7.1 2s5.1 2.3 5.1 5.1-2.3 5.1-5.1 5.1S2 9.9 2 7.1z"/>
</symbol><symbol id="icon-view-default" viewBox="0 0 18 18"><g fill="currentColor">
    <path d="M8 11H0V0h8v11zM18 5h-8V0h8v5zM8 18H0v-5h8v5zM18 18h-8V7h8v11z"/></g>
</symbol>
<symbol id="icon-view-alt" viewBox="0 0 18 18"><g fill="currentColor">
    <path d="M8 8H0V0h8v8zM18 8h-8V0h8v8zM8 18H0v-8h8v8zM18 18h-8v-8h8v8z"/></g>
</symbol>
<symbol id="icon-view-full" viewBox="0 0 18 18"><g fill="currentColor">
<path d="M18 8H0V0h18v8zM18 18H0v-8h18v8z"/></g>
</symbol>
<symbol id="icon-facebook" viewBox="0 0 9 19">
<path fill="currentColor" d="M6.7 3.6H9V0H6.3c-3.3.1-4 2.1-4 4.1V6H0v3.5h2.2V19h3.4V9.5h2.8L8.9 6H5.6V4.9c0-.7.4-1.3 1.1-1.3z"/>
</symbol>
<symbol id="icon-twitter" viewBox="0 0 17.9 15">
<path fill="currentColor" d="M17.9 1.8c-.3.2-1.2.5-2 .6.5-.3 1.3-1.3 1.5-2.1-.5.3-1.7.8-2.3.8C14.4.5 13.5 0 12.4 0c-2 0-3.7 1.7-3.7 3.8 0 .3 0 .6.1.8-2.8-.1-6-1.5-7.8-4-1.1 2-.2 4.2 1.1 5-.4 0-1.2-.1-1.6-.4 0 1.3.6 3.1 2.9 3.7-.5.4-1.3.3-1.6.3.1 1.1 1.6 2.6 3.3 2.6-.6.7-2.6 2-5.1 1.6 1.7 1 3.7 1.6 5.8 1.6 6 0 10.6-5 10.3-11.1v-.1c.6-.4 1.3-1.1 1.8-2z"/>
</symbol>
<symbol id="icon-pinterest" viewBox="0 0 18 18">
<path fill="currentColor" d="M2.3 0h13.4C17 0 18 .9 18 2.3v13.4c0 1.4-1 2.3-2.3 2.3H2.3C1 18 0 17.1 0 15.7V2.3C0 .9 1 0 2.3 0zm10.8 2c-.4 0-.8.4-.8.8v1.9c0 .4.4.8.8.8h2c.4 0 .8-.4.8-.8V2.8c.1-.4-.3-.8-.8-.8h-2zM16 7.6h-1.6c.2.5.2 1 .2 1.5 0 3-2.5 5.4-5.6 5.4-3.1 0-5.6-2.4-5.6-5.4 0-.5.1-1.1.2-1.5H2v7.6c0 .4.3.7.7.7h12.5c.4 0 .7-.3.7-.7l.1-7.6zM9 5.5C7 5.5 5.4 7 5.4 9c0 1.9 1.6 3.5 3.6 3.5s3.6-1.6 3.6-3.5c0-2-1.6-3.5-3.6-3.5z"/>
</symbol>
<symbol id="icon-tumblr" viewBox="0 0 11 19">
<path fill="currentColor" d="M8.6 15.9c-1.6 0-2.3-1.3-2.3-2.2V7.8h4.1v-3h-4V.1S4.7 0 3.5 0C3.5 4.1 0 4.9 0 4.9v2.8h2.3v7C2.3 17.1 4.4 19 7 19s4-1.1 4-1.1v-3.1c0 .1-.8 1.1-2.4 1.1z"/>
</symbol>
<symbol id="icon-menu" viewBox="0 0 274.5 224.5"><g fill="currentColor">
<path d="M274 53.8H.5V.5H274v53.3zM274 138.9H.5V85.6H274v53.3zM274 224H.5v-53.3H274V224z"/></g>
</symbol>
<symbol id="bar" viewBox="0 0 274.5 54.3">
<path fill="currentColor" d="M274 53.8H.5V.5H274v53.3z"/></symbol><symbol id="arrow" viewBox="0 0 38 14"><path fill="currentColor" d="M31 0l-1.4 1.4L34.2 6H0v2h34.2l-4.6 4.6L31 14l7-7-7-7z"/>
</symbol>
<symbol id="refresh" viewBox="0 0 19 16"><path fill="currentColor" d="M9.4 6.2l5.9 4.4L19 4.4l-1.7-1L15.7 6c-.9-3.5-4-6-7.7-6-4.4 0-8 3.6-8 8s3.6 8 8 8c2.1 0 4.1-.8 5.6-2.3l-1.4-1.4C11.1 13.3 9.6 14 8 14c-3.3 0-6-2.7-6-6s2.7-6 6-6c3 0 5.4 2.2 5.9 5l-3.3-2.4-1.2 1.6z"/>
</symbol>
<symbol id="icon-linkedin" viewBox="0 0 32 32"><g fill="currentColor">
<path d="M29 0h-26c-1.65 0-3 1.35-3 3v26c0 1.65 1.35 3 3 3h26c1.65 0 3-1.35 3-3v-26c0-1.65-1.35-3-3-3zM12 26h-4v-14h4v14zM10 10c-1.106 0-2-0.894-2-2s0.894-2 2-2c1.106 0 2 0.894 2 2s-0.894 2-2 2zM26 26h-4v-8c0-1.106-0.894-2-2-2s-2 0.894-2 2v8h-4v-14h4v2.481c0.825-1.131 2.087-2.481 3.5-2.481 2.488 0 4.5 2.238 4.5 5v9z"></path>
</g>
</symbol>
<symbol id="icon-github" viewBox="0 0 32 32"> <g fill="currentColor">
<path d="M16 0.395c-8.836 0-16 7.163-16 16 0 7.069 4.585 13.067 10.942 15.182 0.8 0.148 1.094-0.347 1.094-0.77 0-0.381-0.015-1.642-0.022-2.979-4.452 0.968-5.391-1.888-5.391-1.888-0.728-1.849-1.776-2.341-1.776-2.341-1.452-0.993 0.11-0.973 0.11-0.973 1.606 0.113 2.452 1.649 2.452 1.649 1.427 2.446 3.743 1.739 4.656 1.33 0.143-1.034 0.558-1.74 1.016-2.14-3.554-0.404-7.29-1.777-7.29-7.907 0-1.747 0.625-3.174 1.649-4.295-0.166-0.403-0.714-2.030 0.155-4.234 0 0 1.344-0.43 4.401 1.64 1.276-0.355 2.645-0.532 4.005-0.539 1.359 0.006 2.729 0.184 4.008 0.539 3.054-2.070 4.395-1.64 4.395-1.64 0.871 2.204 0.323 3.831 0.157 4.234 1.026 1.12 1.647 2.548 1.647 4.295 0 6.145-3.743 7.498-7.306 7.895 0.574 0.497 1.085 1.47 1.085 2.963 0 2.141-0.019 3.864-0.019 4.391 0 0.426 0.288 0.925 1.099 0.768 6.354-2.118 10.933-8.113 10.933-15.18 0-8.837-7.164-16-16-16z"></path>
</g>
</symbol>
</svg>